<?xml version="1.0" encoding="UTF-8" standalone="no"?>
<!-- Created with Inkscape (http://www.inkscape.org/) -->

<svg
   width="21.638405mm"
   height="21.638407mm"
   viewBox="0 0 21.638405 21.638407"
   version="1.1"
   id="svg1"
   xml:space="preserve"
   xmlns="http://www.w3.org/2000/svg"
   xmlns:svg="http://www.w3.org/2000/svg"><defs
     id="defs1" /><g
     id="layer1"
     transform="translate(392.6519,-73.000225)"><g
       id="g39-5"
       transform="matrix(0.7503165,0,0,0.7503165,-219.41735,8.1111612)"><path
         id="path11-1"
         style="opacity:1;fill:#000000;fill-opacity:1;stroke:none;stroke-width:1.43433;stroke-linecap:round;stroke-linejoin:round;stroke-dasharray:none;stroke-opacity:1;paint-order:stroke fill markers"
         d="m -216.46251,92.682845 a 6.1324572,6.1324572 0 0 0 -6.13241,6.132416 6.1324572,6.1324572 0 0 0 6.13241,6.132399 6.1324572,6.1324572 0 0 0 6.1324,-6.132399 6.1324572,6.1324572 0 0 0 -6.1324,-6.132416 z m 0,1.48011 a 4.6522189,4.6522189 0 0 1 4.65229,4.652306 4.6522189,4.6522189 0 0 1 -4.65229,4.652279 4.6522189,4.6522189 0 0 1 -4.6523,-4.652279 4.6522189,4.6522189 0 0 1 4.6523,-4.652306 z" /><path
         style="opacity:1;fill:none;fill-opacity:1;stroke:#000000;stroke-width:1.43433;stroke-linecap:round;stroke-linejoin:round;stroke-dasharray:none;stroke-opacity:1;paint-order:normal"
         d="m -219.00542,107.49057 h 5.0858"
         id="path15-6" /><path
         style="opacity:1;fill:none;fill-opacity:1;stroke:#000000;stroke-width:1.43433;stroke-linecap:round;stroke-linejoin:round;stroke-dasharray:none;stroke-opacity:1;paint-order:normal"
         d="m -216.46251,110.03347 v -5.08581"
         id="path16-6" /></g><rect
       style="opacity:0.00354608;fill:#dadada;fill-opacity:0.01;stroke:none;stroke-width:1.89682;stroke-linecap:round;stroke-linejoin:round;stroke-dasharray:none;stroke-opacity:1;paint-order:normal"
       id="rect16-2-0-4-0-5-1"
       width="21.638405"
       height="21.638405"
       x="-371.01355"
       y="74.92009" /><rect
       style="opacity:0.00354608;fill:#dadada;fill-opacity:0.01;stroke:none;stroke-width:1.89682;stroke-linecap:round;stroke-linejoin:round;stroke-dasharray:none;stroke-opacity:1;paint-order:normal"
       id="rect16-2-0-4-0-5-1-7"
       width="21.638405"
       height="21.638405"
       x="-392.65195"
       y="73.000229" /></g></svg>
